HIERARCHY
ROOT Hips
{
	OFFSET	0.00	0.00	0.00
	CHANNELS 6 Xposition Yposition Zposition Zrotation Xrotation Yrotation
	JOINT Spine
	{
		OFFSET	 0.00	0.01	 0.00
		CHANNELS 3 Zrotation Xrotation Yrotation
		JOINT Spine1
		{
			OFFSET	 0.00	 2.45913012437421	 0.00
			CHANNELS 3 Zrotation Xrotation Yrotation
            JOINT Neck
            {
                OFFSET	 0.00	 2.48462964506057	 0.00
                CHANNELS 3 Zrotation Xrotation Yrotation
                JOINT Head
                {
                    OFFSET	 0.00	 0.927524780924562	 0.00
                    CHANNELS 3 Zrotation Xrotation Yrotation
                    End Site 
                    {
                        OFFSET	 0.00	 1.14999962169752	 0.00
                    }
                }
            }
			JOINT LeftShoulder
			{
				OFFSET	 0.00	 2.48462964506057	 0.00
				CHANNELS 3 Zrotation Xrotation Yrotation
				JOINT LeftUpArm
				{
					OFFSET	 0.00	 1.24881979654096	 0.00
					CHANNELS 3 Zrotation Xrotation Yrotation
					JOINT LeftForeArm
					{
						OFFSET	 0.00	2.59758046908119	 0.00
						CHANNELS 3 Zrotation Xrotation Yrotation
						JOINT LeftHand
						{
							OFFSET	 0.00	2.45542024364365	 0.00
							CHANNELS 3 Zrotation Xrotation Yrotation
							JOINT LeftHandThumb 
							{
								OFFSET	 0.00	0.00	 0.00
								CHANNELS 3 Zrotation Xrotation Yrotation
								End Site
								{
									OFFSET	 0.00	0.00	1.00000003353624
								}
							}
							JOINT L_Wrist_End 
							{
								OFFSET	 0.00	0.99999967115358	 0.00
								CHANNELS 3 Zrotation Xrotation Yrotation
								End Site 
								{
									OFFSET	 0.00	 0.00	 0.00
								}
							}
						}
					}
				}
			}
			JOINT RightShoulder
			{
				OFFSET	 0.00	 2.48462964506057	 0.00
				CHANNELS 3 Zrotation Xrotation Yrotation
				JOINT RightUpArm
				{
					OFFSET	 0.00	 1.24881979654096	 0.00
					CHANNELS 3 Zrotation Xrotation Yrotation
					JOINT RightForeArm
					{
						OFFSET	 0.00	2.59758046908119	 0.00
						CHANNELS 3 Zrotation Xrotation Yrotation
						JOINT RightHand
						{
							OFFSET	 0.00	2.45542024364365	 0.00
							CHANNELS 3 Zrotation Xrotation Yrotation
							JOINT RightHandThumb 
							{
								OFFSET	 0.00	0.00	 0.00
								CHANNELS 3 Zrotation Xrotation Yrotation
								End Site
								{
									OFFSET	 0.00	0.00	1.00000003353624
								}
							}
							JOINT R_Wrist_End 
							{
								OFFSET	 0.00	0.99999967115358	 0.00
								CHANNELS 3 Zrotation Xrotation Yrotation
								End Site 
								{
									OFFSET	 0.00	 0.00	 0.00
								}
							}
						}
					}
				}
			}
		}
	}
	JOINT LeftUpLeg
	{
		OFFSET	 1.2719394002717	 0.00	 0.00
		CHANNELS 3 Zrotation Xrotation Yrotation
		JOINT LeftLowLeg
		{
			OFFSET	 0.00	-4.3429100912261	 0.00
			CHANNELS 3 Zrotation Xrotation Yrotation
			JOINT LeftFoot
			{
				OFFSET	 0.00	-4.48767017425826	 0.00
				CHANNELS 3 Zrotation Xrotation Yrotation
				JOINT LeftToeBase
                {
                    OFFSET	 0.00	0.00	 1.51507020887566
                    CHANNELS 3 Zrotation Xrotation Yrotation
                    End Site 
                    {
                        OFFSET	 0.00	0.00	 0.75000010571191
                    }
                }
			}
		}
	}
	JOINT RightUpLeg
	{
		OFFSET	 -1.2719393604653	 0.00	 0.00
		CHANNELS 3 Zrotation Xrotation Yrotation
		JOINT RightLowLeg
		{
			OFFSET	 0.00	-4.3429100912261	 0.00
			CHANNELS 3 Zrotation Xrotation Yrotation
			JOINT RightFoot
			{
				OFFSET	 0.00	-4.48767017425826	 0.00
				CHANNELS 3 Zrotation Xrotation Yrotation
				JOINT RightToeBase
                {
                    OFFSET	 0.00	0.00	 1.51507020887566
                    CHANNELS 3 Zrotation Xrotation Yrotation
                    End Site 
                    {
                        OFFSET	 0.00	0.00	 0.749999965609858
                    }
                }   
			}
		}
	}
}
MOTION 
Frames:	8 
Frame Time: 0.02 
  -4.6739199829101565 -12.768299560546875 9.191500244140625 -101.946 85.7977 865.786 2.37217 -4.53287 -6.22288 -0.460218 16.1967 3.80885 16.5601 30.7772 345.082 68.5171 -82.9519 -290.313 -114.3434 -1.69768 365.367 -43.9635 10.4323 -42.7515 0.0 136.52 0.0 54.8716 -32.0836 -7.97774 0.0 0.0 0.0 0.0 0.0 0.0 118.1383 -5.27508 -359.747 40.7256 11.4065 41.9366 0.0 138.394 0.0 -60.975 -12.9581 18.1407 0.0 0.0 0.0 0.0 0.0 0.0 6.55834 -27.5528 -2.53731 0.0 45.9784 0.0 -17.4109 -3.4141006 5.14656 0.0 -26.1604 0.0 9.76351 -13.8916 6.05319 0.0 25.106 0.0 24.4356 -8.155701 -7.65321 0.0 -19.42598 0.0 
  -4.699549865722656 -12.71780029296875 9.195 -111.336 84.5145 875.261 2.44259 -4.59126 -6.23641 -0.423158 15.1664 3.77463 17.0875 31.1895 344.873 67.1072 -82.7523 -291.611 -114.2905 -1.78091 365.065 -43.5962 10.3802 -43.3975 0.0 136.148 0.0 54.3527 -31.9286 -9.10997 0.0 0.0 0.0 0.0 0.0 0.0 118.0339 -5.55201 -359.21 41.0055 11.2404 43.2955 0.0 136.392 0.0 -57.7514 -14.4715 20.8256 0.0 0.0 0.0 0.0 0.0 0.0 6.3824 -29.0122 -2.8563 0.0 45.9495 0.0 -16.894 -3.7061996 5.66068 0.0 -26.1745 0.0 9.57405 -15.6445 6.06338 0.0 24.9289 0.0 24.4876 -7.813299 -7.52231 0.0 -19.28841 0.0 
  -4.719169921875 -12.66800048828125 9.199019775390624 -116.112 83.4285 880.005 2.59417 -4.48249 -6.14006 -0.430999 14.3312 3.81696 17.2118 31.1275 344.844 66.3145 -82.6172 -292.47 -114.092896 -1.92629 364.896 -43.1487 10.5753 -43.6853 0.0 136.026 0.0 53.7117 -32.4689 -9.57805 0.0 0.0 0.0 0.0 0.0 0.0 118.1189 -5.77498 -358.361 40.767 10.8327 43.9177 0.0 135.186 0.0 -55.6291 -13.8804 23.4656 0.0 0.0 0.0 0.0 0.0 0.0 6.21049 -30.0344 -3.27027 0.0 45.9717 0.0 -16.5948 -3.861 5.81153 0.0 -26.1961 0.0 9.42377 -17.0309 6.30553 0.0 24.6996 0.0 24.799 -7.494499 -7.43527 0.0 -19.39589 0.0 
  -4.732420043945313 -12.61969970703125 9.202780151367188 -119.392 82.4702 883.112 2.50859 -4.51491 -6.05486 0.0250796 14.011 4.05221 16.7896 30.4885 344.912 65.0802 -82.6359 -293.887 -114.1021 -1.81515 364.573 -42.7291 10.5645 -43.7737 0.0 136.36 0.0 53.5953 -32.195 -10.3296 0.0 0.0 0.0 0.0 0.0 0.0 117.839005 -5.84301 -357.834 40.419 10.5736 44.6078 0.0 135.54 0.0 -55.5078 -13.0612 24.3944 0.0 0.0 0.0 0.0 0.0 0.0 6.05359 -30.7504 -3.64274 0.0 45.9866 0.0 -16.5149 -3.9011002 5.598 0.0 -26.364601 0.0 9.25938 -18.2411 6.63112 0.0 24.5031 0.0 25.1174 -7.2070007 -7.31466 0.0 -19.35136 0.0 
  -4.739760131835937 -12.57219970703125 9.207020263671875 -121.951 81.681 885.395 2.55551 -4.35654 -5.83835 0.150381 13.462 4.29158 16.6135 29.9107 344.793 64.4228 -82.6465 -294.667 -113.9531 -1.69341 364.889 -42.2203 10.5992 -44.3814 0.0 136.966 0.0 52.7339 -32.1783 -11.5236 0.0 0.0 0.0 0.0 0.0 0.0 117.8501 -5.84366 -358.438 39.6162 10.8462 45.9965 0.0 136.336 0.0 -56.0414 -11.7345 24.2253 0.0 0.0 0.0 0.0 0.0 0.0 5.87417 -31.1515 -3.96387 0.0 45.9555 0.0 -16.5799 -3.9223995 5.2754 0.0 -26.4628 0.0 9.04259 -19.2697 6.91389 0.0 24.3544 0.0 25.3333 -6.9037 -7.16141 0.0 -19.35884 0.0 
  -4.740020141601563 -12.52489990234375 9.212080078125 -124.474 80.8851 887.584 2.53273 -4.30988 -5.6555 0.253501 12.8566 4.51391 16.4123 29.3877 344.768 63.0277 -82.5772 -296.158 -113.7646 -1.60662 365.329 -41.905 10.6494 -44.751 0.0 137.434 0.0 52.18 -32.0594 -11.7926 0.0 0.0 0.0 0.0 0.0 0.0 117.5996 -5.82403 -359.327 39.2792 11.3158 47.5188 0.0 137.307 0.0 -56.1627 -12.4033 23.6436 0.0 0.0 0.0 0.0 0.0 0.0 5.67331 -31.4273 -4.10595 0.0 45.833 0.0 -16.6795 -3.9291992 4.92862 0.0 -26.577599 0.0 8.75216 -20.2826 7.21571 0.0 24.2145 0.0 25.6155 -6.619499 -6.94817 0.0 -19.30953 0.0 
  -4.730130004882812 -12.4827001953125 9.219810180664062 -126.737 80.1817 889.429 2.36643 -4.59154 -5.60674 0.426757 12.6071 4.66102 16.095 29.0721 344.965 61.8329 -82.49 -297.323 -113.701004 -1.54763 365.525 -41.6776 10.5247 -45.0776 0.0 137.211 0.0 51.1333 -31.4117 -12.4069 0.0 0.0 0.0 0.0 0.0 0.0 117.2612 -5.5552 -359.961 39.2515 11.5928 48.6311 0.0 137.416 0.0 -55.4885 -12.0722 24.1169 0.0 0.0 0.0 0.0 0.0 0.0 5.48663 -31.3945 -4.08916 0.0 45.5611 0.0 -16.6367 -3.9216995 4.67006 0.0 -26.7751 0.0 8.38118 -21.0884 7.34893 0.0 23.9665 0.0 25.8956 -6.2626 -6.58288 0.0 -19.28289 0.0 
  -4.711180114746094 -12.445 9.227119750976563 -128.43 79.6476 890.647 2.38665 -4.969 -5.4674 0.252493 12.3461 4.77926 16.0902 29.1228 345.017 60.7764 -82.3936 -298.283 -113.6266 -1.56034 365.916 -41.3982 10.6426 -45.3255 0.0 136.129 0.0 49.0055 -30.9027 -14.2784 0.0 0.0 0.0 0.0 0.0 0.0 117.1401 -5.29375 -360.48 39.3943 11.7996 49.3716 0.0 136.881 0.0 -53.8545 -12.2788 25.3612 0.0 0.0 0.0 0.0 0.0 0.0 5.35618 -31.0318 -3.97275 0.0 45.2544 0.0 -16.5564 -4.0102005 4.56668 0.0 -26.7146 0.0 8.04429 -21.6057 7.62975 0.0 23.6272 0.0 26.1935 -5.9671 -6.30753 0.0 -19.28847 0.0 
